<svg width="784" height="510" viewBox="0 0 784 510" fill="none" xmlns="http://www.w3.org/2000/svg">
<rect width="784" height="510" fill="#EBECEE"/>
<g clip-path="url(#clip0_0_1)">
<path d="M298.088 212.547C297.288 209.849 295.769 207.118 293.533 204.32C288.615 198.238 283.226 193.831 277.383 192.107C249.581 183.97 221.78 183.97 193.969 192.082C193.697 192.156 193.433 192.247 193.161 192.329C185.115 195.119 175.724 204.584 173.19 212.572C164.971 240.514 164.938 268.457 173.099 296.399C173.628 298.19 174.486 300.063 175.666 301.961C179.998 308.769 187.128 315.156 193.821 317.178C221.722 325.34 249.623 325.34 277.524 317.162C285.982 314.488 295.472 304.989 298.146 296.547C302.231 282.585 304.278 268.622 304.278 254.659C304.278 240.696 302.206 226.585 298.088 212.547ZM284.134 284.656C282.921 293.263 274.355 301.821 265.739 303.042C245.695 305.633 225.642 305.633 205.589 303.042C196.973 301.829 188.407 293.263 187.194 284.656C184.611 264.652 184.611 244.641 187.194 224.637C188.416 216.03 196.973 207.464 205.589 206.251C225.642 203.66 245.686 203.66 265.739 206.259C274.355 207.472 282.921 216.038 284.134 224.645C286.717 244.649 286.717 264.652 284.134 284.656Z" fill="#0C0C0C"/>
<path d="M270.431 275.958C270.184 279.003 269.895 282.048 269.556 285.093C269.358 286.851 267.757 288.452 266.008 288.65C255.296 289.83 247.391 290.449 236.679 290.515C234.93 290.531 233.494 289.013 233.486 287.14C233.477 283.921 233.469 280.695 233.461 277.476C233.453 275.611 234.93 274.101 236.762 274.093C247.902 274.052 256.229 273.68 267.361 272.979C269.193 272.871 270.571 274.2 270.431 275.958Z" fill="#0C0C0C"/>
<path d="M394.821 219.29C395.597 219.29 396.224 219.917 396.224 220.693V287.313C396.224 288.089 395.597 288.725 394.821 288.725H386.23C385.455 288.725 384.828 288.097 384.828 287.313V259.759C384.828 258.983 384.2 258.348 383.416 258.348H353.527C352.751 258.348 352.116 258.975 352.116 259.759V287.313C352.116 288.089 351.488 288.725 350.713 288.725H342.122C341.346 288.725 340.711 288.097 340.711 287.313V220.701C340.711 219.925 341.338 219.298 342.122 219.298H350.713C351.488 219.298 352.116 219.925 352.116 220.701V247.661C352.116 248.437 352.743 249.072 353.527 249.072H383.416C384.192 249.072 384.828 248.445 384.828 247.661V220.701C384.828 219.925 385.455 219.298 386.23 219.298H394.821V219.29Z" fill="#0C0C0C"/>
<path d="M458.346 245.763C456.076 241.637 452.908 238.435 448.839 236.174C444.771 233.913 440.141 232.774 434.942 232.774C429.743 232.774 424.734 233.946 420.534 236.273C416.399 238.608 413.165 241.934 410.837 246.266C408.568 250.525 407.438 255.492 407.438 261.153C407.438 266.815 408.601 271.807 410.936 276.131C413.338 280.398 416.606 283.723 420.74 286.125C424.941 288.452 429.669 289.624 434.942 289.624C441.404 289.624 446.809 288.023 451.142 284.829C455.004 281.966 457.809 278.409 459.567 274.159C459.93 273.276 459.254 272.335 458.296 272.335H448.814C448.278 272.335 447.791 272.649 447.535 273.111C444.952 277.724 440.752 280.035 434.942 280.035C430.668 280.035 427.07 278.698 424.14 276.032C421.549 273.68 419.973 270.652 419.403 266.955C419.28 266.146 419.931 265.445 420.757 265.445H460.145C460.838 265.445 461.424 264.941 461.506 264.256C461.663 262.903 461.746 261.434 461.746 259.85C461.746 254.527 460.607 249.831 458.346 245.763ZM448.41 256.252H420.93C420.08 256.252 419.428 255.509 419.593 254.684C420.311 251.16 421.887 248.321 424.338 246.167C427.136 243.634 430.503 242.371 434.439 242.371C438.771 242.371 442.402 243.634 445.34 246.167C447.931 248.404 449.409 251.292 449.763 254.824C449.838 255.608 449.194 256.252 448.41 256.252Z" fill="#0C0C0C"/>
<path d="M492.966 289.624C488.633 289.624 484.73 288.856 481.264 287.33C477.864 285.729 475.166 283.6 473.16 280.934C471.452 278.607 470.429 276.065 470.082 273.301C469.983 272.509 470.627 271.84 471.427 271.84H480.472C481.206 271.84 481.801 272.401 481.974 273.111C482.411 274.894 483.443 276.437 485.068 277.732C487.14 279.267 489.706 280.035 492.768 280.035C495.829 280.035 498.437 279.432 500.17 278.236C501.969 276.973 502.869 275.372 502.869 273.441C502.869 271.378 501.87 269.843 499.865 268.845C497.934 267.846 494.831 266.749 490.564 265.552C486.43 264.422 483.063 263.324 480.464 262.259C477.864 261.195 475.595 259.561 473.664 257.366C471.799 255.171 470.866 252.274 470.866 248.676C470.866 245.747 471.733 243.081 473.466 240.688C475.199 238.221 477.666 236.29 480.868 234.895C484.136 233.5 487.866 232.799 492.066 232.799C498.338 232.799 503.372 234.4 507.168 237.593C510.684 240.44 512.705 244.245 513.25 249.006C513.341 249.807 512.697 250.475 511.888 250.475H503.265C502.53 250.475 501.936 249.906 501.779 249.188C501.375 247.315 500.442 245.78 498.965 244.575C497.166 243.106 494.732 242.38 491.662 242.38C488.592 242.38 486.364 242.949 484.763 244.08C483.162 245.21 482.362 246.712 482.362 248.577C482.362 250.038 482.898 251.276 483.963 252.274C485.027 253.273 486.331 254.073 487.866 254.667C489.401 255.204 491.662 255.897 494.666 256.763C498.668 257.828 501.936 258.926 504.47 260.056C507.069 261.121 509.305 262.722 511.17 264.851C513.035 266.98 514.001 269.81 514.067 273.342C514.067 276.47 513.2 279.267 511.467 281.735C509.735 284.202 507.267 286.133 504.065 287.528C500.929 288.923 497.232 289.624 492.966 289.624Z" fill="#0C0C0C"/>
<path d="M541.1 242.966C540.324 242.966 539.697 243.593 539.697 244.377V273.441C539.697 275.504 540.167 277.006 541.1 277.939C542.098 278.805 543.765 279.234 546.101 279.234H551.696C552.472 279.234 553.107 279.862 553.107 280.645V287.322C553.107 288.097 552.48 288.733 551.696 288.733H544.104C538.971 288.733 535.034 287.536 532.303 285.135C529.571 282.733 528.202 278.838 528.202 273.45V244.385C528.202 243.609 527.574 242.974 526.799 242.974H523.11C522.334 242.974 521.707 242.347 521.707 241.571V235.093C521.707 234.317 522.334 233.69 523.11 233.69H526.799C527.574 233.69 528.202 233.063 528.202 232.287V221.411C528.202 220.635 528.829 220.008 529.604 220.008H538.294C539.07 220.008 539.697 220.635 539.697 221.411V232.287C539.697 233.063 540.324 233.69 541.1 233.69H551.688C552.463 233.69 553.099 234.317 553.099 235.093V241.571C553.099 242.347 552.472 242.974 551.688 242.974H541.1V242.966Z" fill="#0C0C0C"/>
<path d="M615 233.673H606.319C605.535 233.673 604.908 234.309 604.908 235.085V237.511C604.908 238.856 603.076 239.533 602.052 238.658C600.625 237.42 598.974 236.331 597.109 235.373C593.907 233.64 590.136 232.774 585.804 232.774C581.009 232.774 576.602 233.979 572.608 236.372C568.672 238.707 565.536 242 563.201 246.266C560.94 250.525 559.801 255.418 559.801 260.947C559.801 266.476 560.94 271.436 563.201 275.834C565.536 280.167 568.672 283.558 572.608 286.026C576.536 288.419 580.869 289.624 585.606 289.624C589.872 289.624 593.676 288.757 597.01 287.024C598.908 286.034 600.583 284.904 602.028 283.641C603.051 282.741 604.908 283.418 604.908 284.771V287.313C604.908 288.089 605.535 288.724 606.319 288.724H615C615.784 288.724 616.411 288.089 616.411 287.313V235.085C616.411 234.309 615.784 233.673 615 233.673ZM602.506 271.139C600.971 273.936 598.941 276.065 596.408 277.534C593.874 278.995 591.143 279.729 588.205 279.729C585.267 279.729 582.602 278.995 580.002 277.534C577.469 275.999 575.406 273.804 573.805 270.941C572.27 268.077 571.503 264.743 571.503 260.947C571.503 257.151 572.27 253.891 573.805 251.16C575.406 248.362 577.469 246.266 580.002 244.864C582.536 243.403 585.276 242.668 588.205 242.668C591.135 242.668 593.874 243.403 596.408 244.864C598.941 246.332 600.971 248.461 602.506 251.259C604.107 254.057 604.908 257.357 604.908 261.153C604.908 264.95 604.107 268.275 602.506 271.139Z" fill="#0C0C0C"/>
</g>
<defs>
<clipPath id="clip0_0_1">
<rect width="449.41" height="137.293" fill="white" transform="translate(167 186)"/>
</clipPath>
</defs>
</svg>
